HIERARCHY
ROOT Pelvis
{
	OFFSET 0.000000 0.000000 0.000000
	CHANNELS 6 Xposition Yposition Zposition Xrotation Yrotation Zrotation
	JOINT LeftUpLeg_virtual
	{
		OFFSET 0.000000 0.000000 0.000000
		CHANNELS 3 Xrotation Yrotation Zrotation
		JOINT LeftUpLeg
		{
			OFFSET 18.735201 -5.666702 -4.541200
			CHANNELS 3 Xrotation Yrotation Zrotation
			JOINT LeftLeg
			{
				OFFSET -0.021200 -31.938179 0.493100
				CHANNELS 3 Xrotation Yrotation Zrotation
				JOINT LeftFoot
				{
					OFFSET 0.021200 -31.938179 -4.336299
					CHANNELS 3 Xrotation Yrotation Zrotation
					JOINT LeftToeBase
					{
						OFFSET 0.943001 -26.722000 15.023500
						CHANNELS 3 Xrotation Yrotation Zrotation
						End Site
						{
							OFFSET 0 0 0
						}
					}
				}
			}
		}
	}
	JOINT RightUpLeg_virtual
	{
		OFFSET 0.000000 0.000000 0.000000
		CHANNELS 3 Xrotation Yrotation Zrotation
		JOINT RightUpLeg
		{
			OFFSET -18.735201 -5.666702 -4.541200
			CHANNELS 3 Xrotation Yrotation Zrotation
			JOINT RightLeg
			{
				OFFSET 0.018946 -31.938133 0.493100
				CHANNELS 3 Xrotation Yrotation Zrotation
				JOINT RightFoot
				{
					OFFSET -0.018946 -31.938126 -4.336299
					CHANNELS 3 Xrotation Yrotation Zrotation
					JOINT RightToeBase
					{
						OFFSET -0.943001 -26.722004 15.023500
						CHANNELS 3 Xrotation Yrotation Zrotation
						End Site
						{
							OFFSET 0 0 0
						}
					}
				}
			}
		}
	}
	JOINT Hips_virtual
	{
		OFFSET 0.000000 0.000000 0.000000
		CHANNELS 3 Xrotation Yrotation Zrotation
		JOINT Hips
		{
			OFFSET -0.000000 -0.000000 -0.000000
			CHANNELS 3 Xrotation Yrotation Zrotation
			JOINT Spine
			{
				OFFSET 0.000000 10.199997 -0.299500
				CHANNELS 3 Xrotation Yrotation Zrotation
				JOINT Spine1
				{
					OFFSET 0.000000 11.900002 -1.516600
					CHANNELS 3 Xrotation Yrotation Zrotation
					JOINT Spine2
					{
						OFFSET 0.000000 13.600006 -2.842500
						CHANNELS 3 Xrotation Yrotation Zrotation
						JOINT Neck_virtual
						{
							OFFSET 0.000000 0.000000 0.000000
							CHANNELS 3 Xrotation Yrotation Zrotation
							JOINT Neck
							{
								OFFSET 0.000000 9.624100 -2.890100
								CHANNELS 3 Xrotation Yrotation Zrotation
								JOINT Head
								{
									OFFSET 0.000000 14.068802 -1.351900
									CHANNELS 3 Xrotation Yrotation Zrotation
									End Site
									{
										OFFSET 0 0 0
									}
								}
							}
						}
						JOINT LeftShoulder_virtual
						{
							OFFSET 0.000000 0.000000 0.000000
							CHANNELS 3 Xrotation Yrotation Zrotation
							JOINT LeftShoulder
							{
								OFFSET 15.263000 10.923401 -0.547700
								CHANNELS 3 Xrotation Yrotation Zrotation
								JOINT LeftArm
								{
									OFFSET 25.438599 -2.830597 -13.032500
									CHANNELS 3 Xrotation Yrotation Zrotation
									JOINT LeftForeArm
									{
										OFFSET 29.960503 0.000000 0.000000
										CHANNELS 3 Xrotation Yrotation Zrotation
										JOINT LeftHand
										{
											OFFSET 27.849251 0.000000 0.000000
											CHANNELS 3 Xrotation Yrotation Zrotation
											End Site
											{
												OFFSET 0 0 0
											}
										}
									}
								}
							}
						}
						JOINT RightShoulder_virtual
						{
							OFFSET 0.000000 0.000000 0.000000
							CHANNELS 3 Xrotation Yrotation Zrotation
							JOINT RightShoulder
							{
								OFFSET -15.263000 10.923401 -0.547700
								CHANNELS 3 Xrotation Yrotation Zrotation
								JOINT RightArm
								{
									OFFSET -25.438599 -2.830597 -13.032500
									CHANNELS 3 Xrotation Yrotation Zrotation
									JOINT RightForeArm
									{
										OFFSET -29.960503 0.000000 0.000000
										CHANNELS 3 Xrotation Yrotation Zrotation
										JOINT RightHand
										{
											OFFSET -27.849251 0.000000 0.000000
											CHANNELS 3 Xrotation Yrotation Zrotation
											End Site
											{
												OFFSET 0 0 0
											}
										}
									}
								}
							}
						}
					}
				}
			}
		}
	}
}
MOTION
Frames: 9
Frame Time: 0.03333333
2.385062 32.166595 -14.828766 0.000000 0.000000 0.000000 41.370538 1.996281 4.430608 -93.516997 -17.398365 3.695600 128.468181 -10.618344 -0.838870 41.721210 -0.751611 -24.587213 0.000000 0.000000 0.000000 42.899093 2.580913 3.689693 -89.971131 29.848955 -25.165871 133.029573 10.952129 -0.881631 33.891310 7.408952 15.568434 0.000000 0.000000 0.000000 42.217160 2.332875 4.497318 -1.504776 0.197144 -1.880318 20.567469 4.156958 -3.437013 15.972146 1.873699 -1.483334 0.000000 0.000000 0.000000 15.433617 1.871641 -1.684418 2.100339 -1.083441 0.640300 0.000000 0.000000 0.000000 15.847919 1.967930 -1.610275 0.663815 -34.446912 -8.081394 -65.794297 -39.232866 -59.095978 -1.716043 -61.526453 -1.306472 0.000000 0.000000 0.000000 15.508248 2.238508 -1.672912 0.784726 17.428986 -0.076905 -41.482519 22.593070 42.042051 3.212144 71.842259 -1.135950 0.000000 0.000000 0.000000 
2.029212 31.870068 -15.539780 0.000000 0.000000 0.000000 38.906820 0.709259 4.707027 -92.454247 -17.494462 4.669075 129.731329 -11.082672 -0.478713 41.649250 -1.157523 -24.792692 0.000000 0.000000 0.000000 40.475762 1.303998 3.915976 -91.041750 30.216822 -23.076508 134.030878 11.361750 -0.888137 35.102388 6.899766 15.643409 0.000000 0.000000 0.000000 39.701731 1.157150 4.730506 -1.557133 0.166683 -1.899967 20.442015 3.769975 -4.086159 17.249243 1.801133 -1.836686 0.000000 0.000000 0.000000 16.764645 1.785539 -2.076903 2.067815 -1.001843 0.654484 0.000000 0.000000 0.000000 17.196917 1.886645 -1.991340 0.263510 -32.284730 -10.044457 -66.185974 -40.807826 -57.544002 -2.039458 -62.932175 -1.722072 0.000000 0.000000 0.000000 16.929944 2.187921 -2.034511 0.787350 16.314255 -0.089673 -44.315644 23.971666 45.133992 3.301056 71.678047 -1.154695 0.000000 0.000000 0.000000 
1.625934 31.711670 -16.211250 0.000000 0.000000 0.000000 36.163960 -0.658293 4.785794 -90.824263 -17.558555 5.628456 130.883199 -11.396089 -0.053952 41.420873 -1.308519 -24.813024 0.000000 0.000000 0.000000 37.859356 0.050192 3.918634 -91.687995 30.224137 -20.855984 134.674515 11.775061 -0.869120 36.286302 6.260314 15.651812 0.000000 0.000000 0.000000 36.980512 -0.087381 4.800061 -1.633187 0.051031 -1.872776 20.329776 3.270292 -4.766287 18.251575 1.685568 -2.128798 0.000000 0.000000 0.000000 17.778395 1.665439 -2.410330 2.034793 -0.885483 0.652779 0.000000 0.000000 0.000000 18.287872 1.769904 -2.308304 -0.097751 -29.630395 -12.121418 -65.088165 -42.002132 -55.124510 -2.340850 -65.028681 -2.178321 0.000000 0.000000 0.000000 18.039855 2.078648 -2.337087 0.780147 15.357919 0.191718 -47.319182 25.930991 49.325888 3.272156 70.848343 -1.078489 0.000000 0.000000 0.000000 
1.206078 31.677471 -16.743362 0.000000 0.000000 0.000000 33.462213 -1.953089 4.681321 -88.644196 -17.660270 6.456985 131.820411 -11.611202 0.509498 41.053487 -1.362516 -24.795742 0.000000 0.000000 0.000000 35.309506 -1.090069 3.752195 -91.758141 29.974586 -18.653400 134.947968 12.185664 -0.901968 37.265195 5.773378 15.865128 0.000000 0.000000 0.000000 34.276621 -1.238935 4.693286 -1.688087 -0.116749 -1.826724 20.217920 2.688876 -5.371064 18.968263 1.539178 -2.271766 0.000000 0.000000 0.000000 18.499656 1.535102 -2.584053 2.014520 -0.740617 0.633350 0.000000 0.000000 0.000000 19.101684 1.624537 -2.479013 -0.337600 -26.663194 -14.012126 -62.850445 -42.647247 -52.360401 -2.574286 -67.659335 -2.622747 0.000000 0.000000 0.000000 18.810802 1.929812 -2.514612 0.762318 14.621499 0.651569 -50.117234 28.226793 53.842286 3.138158 69.737276 -0.895269 0.000000 0.000000 0.000000 
0.807260 31.750118 -17.103149 0.000000 0.000000 0.000000 31.029304 -2.962068 4.436710 -86.108106 -17.609109 7.355813 132.393573 -11.824102 1.040812 40.772678 -1.540964 -24.917119 0.000000 0.000000 0.000000 32.977055 -2.017778 3.501604 -91.423708 29.605257 -16.642990 134.937231 12.540473 -1.021038 38.308021 5.593781 16.342722 0.000000 0.000000 0.000000 31.798400 -2.215882 4.462105 -1.719038 -0.260271 -1.749983 20.118706 2.107714 -5.848025 19.421687 1.387134 -2.257413 0.000000 0.000000 0.000000 18.954118 1.406967 -2.582225 2.005378 -0.584885 0.594221 0.000000 0.000000 0.000000 19.654382 1.473370 -2.491128 -0.429395 -23.723296 -15.503211 -60.221491 -42.510534 -50.118624 -2.606026 -70.173985 -2.907812 0.000000 0.000000 0.000000 19.250642 1.752639 -2.548109 0.747303 14.134339 1.077344 -52.481934 30.640720 58.055433 2.778459 68.275998 -0.499435 0.000000 0.000000 0.000000 
0.476969 31.888187 -17.354263 0.000000 0.000000 0.000000 28.974260 -3.609953 4.130373 -83.688266 -17.293306 8.352035 132.601347 -12.048754 1.401780 40.756237 -1.819291 -25.131159 0.000000 0.000000 0.000000 30.958621 -2.604885 3.213687 -90.902803 29.164836 -15.041525 134.808414 12.756696 -1.134089 39.465455 5.536691 16.833099 0.000000 0.000000 0.000000 29.702065 -2.973641 4.190443 -1.735456 -0.377870 -1.711218 20.064186 1.573491 -6.179720 19.597488 1.244885 -2.146326 0.000000 0.000000 0.000000 19.143017 1.286780 -2.456081 2.002555 -0.442932 0.546534 0.000000 0.000000 0.000000 19.912619 1.326521 -2.392770 -0.415140 -21.095048 -16.505079 -57.858321 -41.623535 -49.101229 -2.370986 -71.778533 -2.928694 0.000000 0.000000 0.000000 19.398224 1.582157 -2.488369 0.771224 13.848655 1.229700 -54.241251 32.939284 61.779157 2.289681 66.096615 -0.042111 0.000000 0.000000 0.000000 
0.224480 32.022594 -17.547279 0.000000 0.000000 0.000000 27.349356 -3.967226 3.851657 -81.774617 -16.808566 9.241004 132.641536 -12.160303 1.599868 41.081809 -1.899526 -25.191896 0.000000 0.000000 0.000000 29.278996 -2.981817 2.989632 -90.250507 28.628041 -13.944511 134.708761 12.756019 -1.094294 40.249803 5.182584 17.038252 0.000000 0.000000 0.000000 28.038012 -3.518439 3.958647 -1.748719 -0.495088 -1.674208 20.119299 1.126474 -6.422091 19.480495 1.120241 -2.013272 0.000000 0.000000 0.000000 19.043298 1.174265 -2.300008 2.002768 -0.338770 0.505841 0.000000 0.000000 0.000000 19.837689 1.200063 -2.280268 -0.366365 -19.034549 -17.040292 -56.151002 -40.003346 -49.507253 -1.825966 -72.099525 -2.598265 0.000000 0.000000 0.000000 19.247657 1.431735 -2.399873 0.840195 13.671220 0.991343 -55.165529 34.941745 64.956431 1.793884 63.121767 0.323058 0.000000 0.000000 0.000000 
0.057611 32.169163 -17.680298 0.000000 0.000000 0.000000 26.153279 -4.206235 3.696403 -80.238098 -16.308074 9.848501 132.595842 -12.104094 1.766209 41.352680 -1.719110 -25.096973 0.000000 0.000000 0.000000 27.946090 -3.231975 2.892690 -89.482342 28.094479 -13.262089 134.643683 12.499962 -0.914798 40.404367 4.446533 16.896136 0.000000 0.000000 0.000000 26.823580 -3.974315 3.839410 -1.726804 -0.558486 -1.660556 20.296563 0.796849 -6.603033 19.016881 1.006449 -1.918804 0.000000 0.000000 0.000000 18.576311 1.074945 -2.177789 1.992913 -0.286986 0.486344 0.000000 0.000000 0.000000 19.376335 1.095040 -2.202289 -0.328474 -17.666476 -17.184527 -54.861480 -37.679384 -50.711829 -1.207037 -71.569099 -2.129934 0.000000 0.000000 0.000000 18.747073 1.304848 -2.337570 0.958928 13.527986 0.457241 -55.115993 36.578624 67.477420 1.352547 59.943939 0.528799 0.000000 0.000000 0.000000 
-0.040731 32.348339 -17.787483 0.000000 0.000000 0.000000 25.368436 -4.474624 3.709151 -78.763665 -15.990303 10.071683 132.378164 -11.968925 2.072894 41.044331 -1.580459 -25.075993 0.000000 0.000000 0.000000 26.985444 -3.453138 2.960852 -88.623323 27.700679 -12.755324 134.553702 12.098796 -0.756712 40.129202 3.761954 16.670808 0.000000 0.000000 0.000000 25.976476 -4.386878 3.842508 -1.726306 -0.554601 -1.596038 20.614667 0.567136 -6.713818 18.153451 0.887062 -1.854816 0.000000 0.000000 0.000000 17.666643 0.987678 -2.101483 1.965457 -0.295778 0.500439 0.000000 0.000000 0.000000 18.467027 1.011631 -2.163441 -0.339328 -16.938418 -17.034902 -53.369818 -34.952055 -51.947748 -0.778736 -71.045586 -1.757003 0.000000 0.000000 0.000000 17.838033 1.201886 -2.298377 1.096688 13.355207 -0.215869 -54.013935 37.955822 69.202275 0.992839 57.345640 0.584382 0.000000 0.000000 0.000000 
